<svg width="49" height="48" viewBox="0 0 49 48" fill="none" xmlns="http://www.w3.org/2000/svg">
<circle cx="24.4639" cy="24" r="24" fill="white" fill-opacity="0.1"/>
<path d="M34.4638 34L29.4013 28.9375M29.4013 28.9375C30.2139 28.1249 30.8584 27.1603 31.2982 26.0987C31.7379 25.037 31.9643 23.8991 31.9643 22.75C31.9643 21.6009 31.7379 20.463 31.2982 19.4013C30.8584 18.3397 30.2139 17.3751 29.4013 16.5625C28.5888 15.7499 27.6241 15.1054 26.5625 14.6656C25.5008 14.2259 24.363 13.9996 23.2138 13.9996C22.0647 13.9996 20.9268 14.2259 19.8652 14.6656C18.8035 15.1054 17.8389 15.7499 17.0263 16.5625C15.3853 18.2035 14.4634 20.4292 14.4634 22.75C14.4634 25.0708 15.3853 27.2965 17.0263 28.9375C18.6674 30.5785 20.8931 31.5004 23.2138 31.5004C25.5346 31.5004 27.7603 30.5785 29.4013 28.9375Z" stroke="#EEEEEE" stroke-width="2" stroke-linecap="round" stroke-linejoin="round"/>
</svg>
